<?xml version="1.0" standalone="no"?>
<!DOCTYPE svg PUBLIC "-//W3C//DTD SVG 1.1//EN" "http://www.w3.org/Graphics/SVG/1.1/DTD/svg11.dtd">
<svg width="76mm" height="118mm" viewBox="-38 -59 76 118" xmlns="http://www.w3.org/2000/svg" version="1.1">
<title>OpenSCAD Model</title>
<path d="
M -37.8,54.2 L -37.7921,54.4511 L -37.7684,54.7013 L -37.7291,54.9495 L -37.6743,55.1947 L -37.6042,55.436
 L -37.5191,55.6725 L -37.4193,55.9031 L -37.3052,56.127 L -37.1773,56.3433 L -37.036,56.5511 L -36.882,56.7497
 L -36.7159,56.9382 L -36.5382,57.1159 L -36.3497,57.282 L -36.1511,57.436 L -35.9433,57.5773 L -35.727,57.7052
 L -35.5031,57.8193 L -35.2725,57.9191 L -35.036,58.0042 L -34.7947,58.0743 L -34.5495,58.1291 L -34.3013,58.1684
 L -34.0511,58.1921 L -33.8,58.2 L 33.8,58.2 L 34.0511,58.1921 L 34.3013,58.1684 L 34.5495,58.1291
 L 34.7947,58.0743 L 35.036,58.0042 L 35.2725,57.9191 L 35.5031,57.8193 L 35.727,57.7052 L 35.9433,57.5773
 L 36.1511,57.436 L 36.3497,57.282 L 36.5382,57.1159 L 36.7159,56.9382 L 36.882,56.7497 L 37.036,56.5511
 L 37.1773,56.3433 L 37.3052,56.127 L 37.4193,55.9031 L 37.5191,55.6725 L 37.6042,55.436 L 37.6743,55.1947
 L 37.7291,54.9495 L 37.7684,54.7013 L 37.7921,54.4511 L 37.8,54.2 L 37.8,5.60001 L 37.7921,5.34885
 L 37.7684,5.09868 L 37.7291,4.8505 L 37.6743,4.60526 L 37.6042,4.36396 L 37.5191,4.12752 L 37.4193,3.8969
 L 37.3052,3.67301 L 37.1773,3.45672 L 37.036,3.24888 L 36.882,3.05033 L 36.7159,2.86184 L 36.5382,2.68415
 L 36.3497,2.51797 L 36.1511,2.36396 L 35.9433,2.22271 L 35.727,2.09479 L 35.5031,1.98072 L 35.2725,1.88091
 L 35.036,1.7958 L 34.7947,1.72568 L 34.5495,1.67087 L 34.3013,1.63157 L 34.0511,1.60792 L 33.8,1.60001
 L -33.8,1.60001 L -34.0511,1.60792 L -34.3013,1.63157 L -34.5495,1.67087 L -34.7947,1.72568 L -35.036,1.7958
 L -35.2725,1.88091 L -35.5031,1.98072 L -35.727,2.09479 L -35.9433,2.22271 L -36.1511,2.36396 L -36.3497,2.51797
 L -36.5382,2.68415 L -36.7159,2.86184 L -36.882,3.05033 L -37.036,3.24888 L -37.1773,3.45672 L -37.3052,3.67301
 L -37.4193,3.8969 L -37.5191,4.12752 L -37.6042,4.36396 L -37.6743,4.60526 L -37.7291,4.8505 L -37.7684,5.09868
 L -37.7921,5.34885 L -37.8,5.60001 z
M -37.8,-5.60001 L -37.7921,-5.34885 L -37.7684,-5.09868 L -37.7291,-4.8505 L -37.6743,-4.60526 L -37.6042,-4.36396
 L -37.5191,-4.12752 L -37.4193,-3.8969 L -37.3052,-3.67301 L -37.1773,-3.45672 L -37.036,-3.24888 L -36.882,-3.05033
 L -36.7159,-2.86184 L -36.5382,-2.68415 L -36.3497,-2.51797 L -36.1511,-2.36396 L -35.9433,-2.22271 L -35.727,-2.09479
 L -35.5031,-1.98072 L -35.2725,-1.88091 L -35.036,-1.7958 L -34.7947,-1.72568 L -34.5495,-1.67087 L -34.3013,-1.63157
 L -34.0511,-1.60792 L -33.8,-1.60001 L 33.8,-1.60001 L 34.0511,-1.60792 L 34.3013,-1.63157 L 34.5495,-1.67087
 L 34.7947,-1.72568 L 35.036,-1.7958 L 35.2725,-1.88091 L 35.5031,-1.98072 L 35.727,-2.09479 L 35.9433,-2.22271
 L 36.1511,-2.36396 L 36.3497,-2.51797 L 36.5382,-2.68415 L 36.7159,-2.86184 L 36.882,-3.05033 L 37.036,-3.24888
 L 37.1773,-3.45672 L 37.3052,-3.67301 L 37.4193,-3.8969 L 37.5191,-4.12752 L 37.6042,-4.36396 L 37.6743,-4.60526
 L 37.7291,-4.8505 L 37.7684,-5.09868 L 37.7921,-5.34885 L 37.8,-5.60001 L 37.8,-54.2 L 37.7921,-54.4511
 L 37.7684,-54.7013 L 37.7291,-54.9495 L 37.6743,-55.1947 L 37.6042,-55.436 L 37.5191,-55.6725 L 37.4193,-55.9031
 L 37.3052,-56.127 L 37.1773,-56.3433 L 37.036,-56.5511 L 36.882,-56.7497 L 36.7159,-56.9382 L 36.5382,-57.1159
 L 36.3497,-57.282 L 36.1511,-57.436 L 35.9433,-57.5773 L 35.727,-57.7052 L 35.5031,-57.8193 L 35.2725,-57.9191
 L 35.036,-58.0042 L 34.7947,-58.0743 L 34.5495,-58.1291 L 34.3013,-58.1684 L 34.0511,-58.1921 L 33.8,-58.2
 L -33.8,-58.2 L -34.0511,-58.1921 L -34.3013,-58.1684 L -34.5495,-58.1291 L -34.7947,-58.0743 L -35.036,-58.0042
 L -35.2725,-57.9191 L -35.5031,-57.8193 L -35.727,-57.7052 L -35.9433,-57.5773 L -36.1511,-57.436 L -36.3497,-57.282
 L -36.5382,-57.1159 L -36.7159,-56.9382 L -36.882,-56.7497 L -37.036,-56.5511 L -37.1773,-56.3433 L -37.3052,-56.127
 L -37.4193,-55.9031 L -37.5191,-55.6725 L -37.6042,-55.436 L -37.6743,-55.1947 L -37.7291,-54.9495 L -37.7684,-54.7013
 L -37.7921,-54.4511 L -37.8,-54.2 z
M 9.2,-8.2 L 9.2,-39.2 L 12.2,-39.2 L 12.2,-8.2 z
M 28.2,-8.2 L 28.2,-50.2 L 31.2,-50.2 L 31.2,-8.2 z
" stroke="black" fill="lightgray" stroke-width="0.5"/>
</svg>
